<?xml version="1.0" standalone="no"?><!DOCTYPE svg PUBLIC "-//W3C//DTD SVG 1.1//EN" "http://www.w3.org/Graphics/SVG/1.1/DTD/svg11.dtd"><svg t="1692584613833" class="icon" viewBox="0 0 1024 1024" version="1.1" xmlns="http://www.w3.org/2000/svg" p-id="8715" xmlns:xlink="http://www.w3.org/1999/xlink" width="200" height="200"><path d="M371.9 64.1h-308v308.1c0 61.9 50.1 112 112 112H484V176.1c0-61.8-50.2-112-112.1-112zM414 330.2v84H190c-30.9 0-56.1-25.1-56.1-56.1 0-4.9 0.8-9.5 2-14h-2V134.2h224c30.9 0 56 25.1 56 56.1 0.1-0.1 0.1 87.2 0.1 139.9zM848 540.3H540v308.1c0 61.9 50.1 112 112 112h308.1V652.3c-0.1-61.9-50.2-112-112.1-112z m42 140v210H666c-30.9 0-56.1-25.1-56.1-56.1v-224h224c30.9 0 56.1 25.1 56.1 56.1 0 4.9-0.8 9.5-2 14h2z" fill="#007FCB" p-id="8716"></path><path d="M708 344.2c-7.7 0-14 6.3-14 14s6.3 14 14 14 14-6.3 14-14-6.3-14-14-14z m133.1-98h-14c-3.9 0-7 3.1-7 7v63c0 21-9.9 28-28 28h-28c-7.7 0-14 6.3-14 14s6.3 14 14 14h36c26.5 0 48-23.4 48-52.2v-66.8c-0.1-3.9-3.2-7-7-7z" fill="#FF6800" p-id="8717"></path><path d="M63.9 652.3v308.1H372c61.9 0 112-50.1 112-112V540.3H175.9c-61.9 0-112 50.1-112 112z m350.1-42v224c0 30.9-25.1 56.1-56 56.1H133.9V680.3h2c-1.2-4.5-2-9.1-2-14 0-30.9 25.1-56.1 56.1-56.1h224v0.1z" fill="#007FCB" p-id="8718"></path><path d="M960.1 64.1v308.1c0 61.9-50.1 112-112 112H540V176.1c0-61.9 50.1-112 112-112h308.1z m-70 70.1h-224c-31 0-56.1 25.1-56.1 56.1v224h224c31 0 56.1-25.2 56.1-56.1 0-4.9-0.8-9.5-2-14h2.1v-210z" fill="#FF6800" p-id="8719"></path></svg>